<mxfile host="app.diagrams.net" modified="2023-10-08T12:42:54.934Z" agent="Mozilla/5.0 (Windows NT 10.0; Win64; x64) AppleWebKit/537.36 (KHTML, like Gecko) Chrome/117.0.0.0 Safari/537.36" etag="CFATCJe7DaIIiAwxkWLn" version="22.0.4" type="github">
  <diagram id="C5RBs43oDa-KdzZeNtuy" name="Page-1">
    <mxGraphModel dx="4522" dy="2781" grid="1" gridSize="10" guides="1" tooltips="1" connect="1" arrows="1" fold="1" page="1" pageScale="1" pageWidth="827" pageHeight="1169" math="0" shadow="0">
      <root>
        <mxCell id="WIyWlLk6GJQsqaUBKTNV-0" />
        <mxCell id="WIyWlLk6GJQsqaUBKTNV-1" parent="WIyWlLk6GJQsqaUBKTNV-0" />
        <mxCell id="n_4jIyUV8x4lz0zzY2AS-61" value="" style="rounded=0;whiteSpace=wrap;html=1;labelBackgroundColor=none;fillColor=none;strokeWidth=4;" vertex="1" parent="WIyWlLk6GJQsqaUBKTNV-1">
          <mxGeometry x="-1140" y="-120" width="2280" height="1060" as="geometry" />
        </mxCell>
        <mxCell id="WIyWlLk6GJQsqaUBKTNV-3" value="&lt;font style=&quot;font-size: 24px;&quot;&gt;FRONTEND&lt;/font&gt;" style="rounded=1;whiteSpace=wrap;html=1;fontSize=12;glass=0;strokeWidth=1;shadow=0;" parent="WIyWlLk6GJQsqaUBKTNV-1" vertex="1">
          <mxGeometry x="-800" y="90" width="170" height="570" as="geometry" />
        </mxCell>
        <mxCell id="n_4jIyUV8x4lz0zzY2AS-1" value="&lt;font style=&quot;font-size: 24px;&quot;&gt;SOUL SEARCH&lt;br&gt;(CONTEXT SEARCHING)&lt;/font&gt;" style="rounded=1;whiteSpace=wrap;html=1;fontSize=12;glass=0;strokeWidth=1;shadow=0;" vertex="1" parent="WIyWlLk6GJQsqaUBKTNV-1">
          <mxGeometry x="-1100" y="120" width="170" height="160" as="geometry" />
        </mxCell>
        <mxCell id="n_4jIyUV8x4lz0zzY2AS-7" style="edgeStyle=orthogonalEdgeStyle;rounded=0;orthogonalLoop=1;jettySize=auto;html=1;entryX=0;entryY=0.75;entryDx=0;entryDy=0;" edge="1" parent="WIyWlLk6GJQsqaUBKTNV-1" source="n_4jIyUV8x4lz0zzY2AS-2" target="WIyWlLk6GJQsqaUBKTNV-3">
          <mxGeometry relative="1" as="geometry" />
        </mxCell>
        <mxCell id="n_4jIyUV8x4lz0zzY2AS-2" value="&lt;font style=&quot;font-size: 24px;&quot;&gt;SOUL LENS&lt;br&gt;(Upload File)&lt;/font&gt;" style="rounded=1;whiteSpace=wrap;html=1;fontSize=12;glass=0;strokeWidth=1;shadow=0;" vertex="1" parent="WIyWlLk6GJQsqaUBKTNV-1">
          <mxGeometry x="-1099" y="467" width="160" height="100" as="geometry" />
        </mxCell>
        <mxCell id="n_4jIyUV8x4lz0zzY2AS-5" style="edgeStyle=orthogonalEdgeStyle;rounded=0;orthogonalLoop=1;jettySize=auto;html=1;entryX=0;entryY=0.193;entryDx=0;entryDy=0;entryPerimeter=0;" edge="1" parent="WIyWlLk6GJQsqaUBKTNV-1" source="n_4jIyUV8x4lz0zzY2AS-1" target="WIyWlLk6GJQsqaUBKTNV-3">
          <mxGeometry relative="1" as="geometry" />
        </mxCell>
        <mxCell id="n_4jIyUV8x4lz0zzY2AS-16" style="edgeStyle=orthogonalEdgeStyle;rounded=0;orthogonalLoop=1;jettySize=auto;html=1;" edge="1" parent="WIyWlLk6GJQsqaUBKTNV-1" source="n_4jIyUV8x4lz0zzY2AS-8" target="n_4jIyUV8x4lz0zzY2AS-15">
          <mxGeometry relative="1" as="geometry" />
        </mxCell>
        <mxCell id="n_4jIyUV8x4lz0zzY2AS-8" value="&lt;font style=&quot;font-size: 24px;&quot;&gt;FAST API LAYER&lt;/font&gt;" style="rounded=1;whiteSpace=wrap;html=1;fontSize=12;glass=0;strokeWidth=1;shadow=0;" vertex="1" parent="WIyWlLk6GJQsqaUBKTNV-1">
          <mxGeometry x="-420" y="90" width="170" height="570" as="geometry" />
        </mxCell>
        <mxCell id="n_4jIyUV8x4lz0zzY2AS-9" value="" style="shape=flexArrow;endArrow=classic;html=1;rounded=0;exitX=1;exitY=0.25;exitDx=0;exitDy=0;entryX=0;entryY=0.25;entryDx=0;entryDy=0;" edge="1" parent="WIyWlLk6GJQsqaUBKTNV-1">
          <mxGeometry width="50" height="50" relative="1" as="geometry">
            <mxPoint x="-630" y="209" as="sourcePoint" />
            <mxPoint x="-420" y="209" as="targetPoint" />
          </mxGeometry>
        </mxCell>
        <mxCell id="n_4jIyUV8x4lz0zzY2AS-10" value="" style="shape=flexArrow;endArrow=classic;html=1;rounded=0;exitX=1;exitY=0.25;exitDx=0;exitDy=0;entryX=0;entryY=0.25;entryDx=0;entryDy=0;" edge="1" parent="WIyWlLk6GJQsqaUBKTNV-1">
          <mxGeometry width="50" height="50" relative="1" as="geometry">
            <mxPoint x="-630" y="360" as="sourcePoint" />
            <mxPoint x="-420" y="360" as="targetPoint" />
          </mxGeometry>
        </mxCell>
        <mxCell id="n_4jIyUV8x4lz0zzY2AS-11" value="" style="shape=flexArrow;endArrow=classic;html=1;rounded=0;exitX=1;exitY=0.25;exitDx=0;exitDy=0;entryX=0;entryY=0.25;entryDx=0;entryDy=0;" edge="1" parent="WIyWlLk6GJQsqaUBKTNV-1">
          <mxGeometry width="50" height="50" relative="1" as="geometry">
            <mxPoint x="-630" y="520" as="sourcePoint" />
            <mxPoint x="-420" y="520" as="targetPoint" />
          </mxGeometry>
        </mxCell>
        <mxCell id="n_4jIyUV8x4lz0zzY2AS-12" value="&lt;font style=&quot;font-size: 24px;&quot;&gt;Search/&lt;/font&gt;" style="text;html=1;align=center;verticalAlign=middle;resizable=0;points=[];autosize=1;strokeColor=none;fillColor=none;" vertex="1" parent="WIyWlLk6GJQsqaUBKTNV-1">
          <mxGeometry x="-595" y="173" width="110" height="40" as="geometry" />
        </mxCell>
        <mxCell id="n_4jIyUV8x4lz0zzY2AS-13" value="&lt;font style=&quot;font-size: 24px;&quot;&gt;getfile/&lt;/font&gt;" style="text;html=1;align=center;verticalAlign=middle;resizable=0;points=[];autosize=1;strokeColor=none;fillColor=none;" vertex="1" parent="WIyWlLk6GJQsqaUBKTNV-1">
          <mxGeometry x="-584" y="325" width="90" height="40" as="geometry" />
        </mxCell>
        <mxCell id="n_4jIyUV8x4lz0zzY2AS-14" value="&lt;font style=&quot;font-size: 24px;&quot;&gt;uploadfile/&lt;/font&gt;" style="text;html=1;align=center;verticalAlign=middle;resizable=0;points=[];autosize=1;strokeColor=none;fillColor=none;" vertex="1" parent="WIyWlLk6GJQsqaUBKTNV-1">
          <mxGeometry x="-600" y="484" width="130" height="40" as="geometry" />
        </mxCell>
        <mxCell id="n_4jIyUV8x4lz0zzY2AS-15" value="&lt;font style=&quot;font-size: 24px;&quot;&gt;BACKEND SERVICE PROVIDER LAYER&lt;/font&gt;" style="rounded=1;whiteSpace=wrap;html=1;fontSize=12;glass=0;strokeWidth=1;shadow=0;" vertex="1" parent="WIyWlLk6GJQsqaUBKTNV-1">
          <mxGeometry x="-120" y="310" width="170" height="130" as="geometry" />
        </mxCell>
        <mxCell id="n_4jIyUV8x4lz0zzY2AS-17" value="&lt;font style=&quot;font-size: 24px;&quot;&gt;STORAGE SERVICE&amp;nbsp;&lt;/font&gt;" style="rounded=1;whiteSpace=wrap;html=1;fontSize=12;glass=0;strokeWidth=1;shadow=0;" vertex="1" parent="WIyWlLk6GJQsqaUBKTNV-1">
          <mxGeometry x="-120" y="567" width="170" height="130" as="geometry" />
        </mxCell>
        <mxCell id="n_4jIyUV8x4lz0zzY2AS-18" value="&lt;font style=&quot;font-size: 24px;&quot;&gt;PRE-PROCESS QUERY&lt;/font&gt;" style="rounded=1;whiteSpace=wrap;html=1;fontSize=12;glass=0;strokeWidth=1;shadow=0;" vertex="1" parent="WIyWlLk6GJQsqaUBKTNV-1">
          <mxGeometry x="80" y="70" width="170" height="130" as="geometry" />
        </mxCell>
        <mxCell id="n_4jIyUV8x4lz0zzY2AS-19" value="&lt;font style=&quot;font-size: 24px;&quot;&gt;CONTROLLER&lt;/font&gt;" style="rounded=1;whiteSpace=wrap;html=1;fontSize=12;glass=0;strokeWidth=1;shadow=0;" vertex="1" parent="WIyWlLk6GJQsqaUBKTNV-1">
          <mxGeometry x="90" y="370" width="160" height="90" as="geometry" />
        </mxCell>
        <mxCell id="n_4jIyUV8x4lz0zzY2AS-54" value="" style="edgeStyle=orthogonalEdgeStyle;rounded=0;orthogonalLoop=1;jettySize=auto;html=1;" edge="1" parent="WIyWlLk6GJQsqaUBKTNV-1" source="n_4jIyUV8x4lz0zzY2AS-20" target="n_4jIyUV8x4lz0zzY2AS-53">
          <mxGeometry relative="1" as="geometry" />
        </mxCell>
        <mxCell id="n_4jIyUV8x4lz0zzY2AS-20" value="&lt;font style=&quot;font-size: 24px;&quot;&gt;PRE-PROCESSED TEXT LAYER SERVICE&lt;/font&gt;" style="rounded=1;whiteSpace=wrap;html=1;fontSize=12;glass=0;strokeWidth=1;shadow=0;" vertex="1" parent="WIyWlLk6GJQsqaUBKTNV-1">
          <mxGeometry x="580" y="140" width="170" height="730" as="geometry" />
        </mxCell>
        <mxCell id="n_4jIyUV8x4lz0zzY2AS-21" value="" style="shape=flexArrow;endArrow=classic;startArrow=classic;html=1;rounded=0;exitX=0.5;exitY=0;exitDx=0;exitDy=0;entryX=0.5;entryY=1;entryDx=0;entryDy=0;" edge="1" parent="WIyWlLk6GJQsqaUBKTNV-1" source="n_4jIyUV8x4lz0zzY2AS-17" target="n_4jIyUV8x4lz0zzY2AS-15">
          <mxGeometry width="100" height="100" relative="1" as="geometry">
            <mxPoint x="30" y="420" as="sourcePoint" />
            <mxPoint x="130" y="320" as="targetPoint" />
          </mxGeometry>
        </mxCell>
        <mxCell id="n_4jIyUV8x4lz0zzY2AS-22" value="" style="endArrow=classic;html=1;rounded=0;exitX=1;exitY=0.5;exitDx=0;exitDy=0;entryX=0;entryY=0.5;entryDx=0;entryDy=0;" edge="1" parent="WIyWlLk6GJQsqaUBKTNV-1" source="n_4jIyUV8x4lz0zzY2AS-17" target="n_4jIyUV8x4lz0zzY2AS-19">
          <mxGeometry width="50" height="50" relative="1" as="geometry">
            <mxPoint x="60" y="400" as="sourcePoint" />
            <mxPoint x="110" y="350" as="targetPoint" />
          </mxGeometry>
        </mxCell>
        <mxCell id="n_4jIyUV8x4lz0zzY2AS-23" value="&lt;font style=&quot;font-size: 12px;&quot;&gt;NEW FILE EVENT TRIGGER&lt;/font&gt;" style="edgeLabel;html=1;align=center;verticalAlign=middle;resizable=0;points=[];" vertex="1" connectable="0" parent="n_4jIyUV8x4lz0zzY2AS-22">
          <mxGeometry x="0.0271" y="4" relative="1" as="geometry">
            <mxPoint x="2" y="10" as="offset" />
          </mxGeometry>
        </mxCell>
        <mxCell id="n_4jIyUV8x4lz0zzY2AS-24" style="edgeStyle=orthogonalEdgeStyle;rounded=0;orthogonalLoop=1;jettySize=auto;html=1;exitX=0.5;exitY=1;exitDx=0;exitDy=0;" edge="1" parent="WIyWlLk6GJQsqaUBKTNV-1" source="n_4jIyUV8x4lz0zzY2AS-19" target="n_4jIyUV8x4lz0zzY2AS-19">
          <mxGeometry relative="1" as="geometry" />
        </mxCell>
        <mxCell id="n_4jIyUV8x4lz0zzY2AS-25" value="&lt;font style=&quot;font-size: 24px;&quot;&gt;PDF&lt;/font&gt;" style="rounded=1;whiteSpace=wrap;html=1;fontSize=12;glass=0;strokeWidth=1;shadow=0;" vertex="1" parent="WIyWlLk6GJQsqaUBKTNV-1">
          <mxGeometry x="340" y="162" width="120" height="80" as="geometry" />
        </mxCell>
        <mxCell id="n_4jIyUV8x4lz0zzY2AS-26" value="&lt;font style=&quot;font-size: 24px;&quot;&gt;PPT&lt;/font&gt;" style="rounded=1;whiteSpace=wrap;html=1;fontSize=12;glass=0;strokeWidth=1;shadow=0;" vertex="1" parent="WIyWlLk6GJQsqaUBKTNV-1">
          <mxGeometry x="340" y="282" width="120" height="80" as="geometry" />
        </mxCell>
        <mxCell id="n_4jIyUV8x4lz0zzY2AS-27" value="&lt;font style=&quot;font-size: 24px;&quot;&gt;VIDEO&lt;/font&gt;" style="rounded=1;whiteSpace=wrap;html=1;fontSize=12;glass=0;strokeWidth=1;shadow=0;" vertex="1" parent="WIyWlLk6GJQsqaUBKTNV-1">
          <mxGeometry x="340" y="401" width="120" height="80" as="geometry" />
        </mxCell>
        <mxCell id="n_4jIyUV8x4lz0zzY2AS-28" value="&lt;font style=&quot;font-size: 24px;&quot;&gt;AUDIO&lt;/font&gt;" style="rounded=1;whiteSpace=wrap;html=1;fontSize=12;glass=0;strokeWidth=1;shadow=0;" vertex="1" parent="WIyWlLk6GJQsqaUBKTNV-1">
          <mxGeometry x="340" y="529" width="120" height="80" as="geometry" />
        </mxCell>
        <mxCell id="n_4jIyUV8x4lz0zzY2AS-29" value="&lt;font style=&quot;font-size: 24px;&quot;&gt;IMG&lt;/font&gt;" style="rounded=1;whiteSpace=wrap;html=1;fontSize=12;glass=0;strokeWidth=1;shadow=0;" vertex="1" parent="WIyWlLk6GJQsqaUBKTNV-1">
          <mxGeometry x="340" y="652" width="120" height="80" as="geometry" />
        </mxCell>
        <mxCell id="n_4jIyUV8x4lz0zzY2AS-30" value="&lt;font style=&quot;font-size: 24px;&quot;&gt;DOCX&lt;/font&gt;" style="rounded=1;whiteSpace=wrap;html=1;fontSize=12;glass=0;strokeWidth=1;shadow=0;" vertex="1" parent="WIyWlLk6GJQsqaUBKTNV-1">
          <mxGeometry x="340" y="792" width="120" height="80" as="geometry" />
        </mxCell>
        <mxCell id="n_4jIyUV8x4lz0zzY2AS-31" value="" style="endArrow=classic;html=1;rounded=0;entryX=-0.029;entryY=0.085;entryDx=0;entryDy=0;entryPerimeter=0;exitX=1;exitY=0.5;exitDx=0;exitDy=0;" edge="1" parent="WIyWlLk6GJQsqaUBKTNV-1" source="n_4jIyUV8x4lz0zzY2AS-25" target="n_4jIyUV8x4lz0zzY2AS-20">
          <mxGeometry width="50" height="50" relative="1" as="geometry">
            <mxPoint x="60" y="590" as="sourcePoint" />
            <mxPoint x="110" y="540" as="targetPoint" />
          </mxGeometry>
        </mxCell>
        <mxCell id="n_4jIyUV8x4lz0zzY2AS-32" value="" style="endArrow=classic;html=1;rounded=0;entryX=-0.029;entryY=0.085;entryDx=0;entryDy=0;entryPerimeter=0;exitX=1;exitY=0.5;exitDx=0;exitDy=0;" edge="1" parent="WIyWlLk6GJQsqaUBKTNV-1">
          <mxGeometry width="50" height="50" relative="1" as="geometry">
            <mxPoint x="464.92999999999995" y="321.5" as="sourcePoint" />
            <mxPoint x="579.93" y="321.5" as="targetPoint" />
          </mxGeometry>
        </mxCell>
        <mxCell id="n_4jIyUV8x4lz0zzY2AS-33" value="" style="endArrow=classic;html=1;rounded=0;entryX=-0.029;entryY=0.085;entryDx=0;entryDy=0;entryPerimeter=0;exitX=1;exitY=0.5;exitDx=0;exitDy=0;" edge="1" parent="WIyWlLk6GJQsqaUBKTNV-1">
          <mxGeometry width="50" height="50" relative="1" as="geometry">
            <mxPoint x="460" y="440.5" as="sourcePoint" />
            <mxPoint x="575" y="440.5" as="targetPoint" />
          </mxGeometry>
        </mxCell>
        <mxCell id="n_4jIyUV8x4lz0zzY2AS-34" value="" style="endArrow=classic;html=1;rounded=0;entryX=-0.029;entryY=0.085;entryDx=0;entryDy=0;entryPerimeter=0;exitX=1;exitY=0.5;exitDx=0;exitDy=0;" edge="1" parent="WIyWlLk6GJQsqaUBKTNV-1">
          <mxGeometry width="50" height="50" relative="1" as="geometry">
            <mxPoint x="460" y="567" as="sourcePoint" />
            <mxPoint x="575" y="567" as="targetPoint" />
          </mxGeometry>
        </mxCell>
        <mxCell id="n_4jIyUV8x4lz0zzY2AS-35" value="" style="endArrow=classic;html=1;rounded=0;entryX=-0.029;entryY=0.085;entryDx=0;entryDy=0;entryPerimeter=0;exitX=1;exitY=0.5;exitDx=0;exitDy=0;" edge="1" parent="WIyWlLk6GJQsqaUBKTNV-1">
          <mxGeometry width="50" height="50" relative="1" as="geometry">
            <mxPoint x="460" y="690" as="sourcePoint" />
            <mxPoint x="575" y="690" as="targetPoint" />
          </mxGeometry>
        </mxCell>
        <mxCell id="n_4jIyUV8x4lz0zzY2AS-36" value="" style="endArrow=classic;html=1;rounded=0;entryX=-0.029;entryY=0.085;entryDx=0;entryDy=0;entryPerimeter=0;exitX=1;exitY=0.5;exitDx=0;exitDy=0;" edge="1" parent="WIyWlLk6GJQsqaUBKTNV-1">
          <mxGeometry width="50" height="50" relative="1" as="geometry">
            <mxPoint x="460" y="831.5" as="sourcePoint" />
            <mxPoint x="575" y="831.5" as="targetPoint" />
          </mxGeometry>
        </mxCell>
        <mxCell id="n_4jIyUV8x4lz0zzY2AS-37" value="" style="endArrow=classic;html=1;rounded=0;entryX=0;entryY=0.5;entryDx=0;entryDy=0;exitX=0.926;exitY=-0.03;exitDx=0;exitDy=0;exitPerimeter=0;" edge="1" parent="WIyWlLk6GJQsqaUBKTNV-1" source="n_4jIyUV8x4lz0zzY2AS-19" target="n_4jIyUV8x4lz0zzY2AS-25">
          <mxGeometry width="50" height="50" relative="1" as="geometry">
            <mxPoint x="210" y="344.29" as="sourcePoint" />
            <mxPoint x="325" y="344.29" as="targetPoint" />
          </mxGeometry>
        </mxCell>
        <mxCell id="n_4jIyUV8x4lz0zzY2AS-38" value="" style="endArrow=classic;html=1;rounded=0;entryX=0;entryY=0.5;entryDx=0;entryDy=0;" edge="1" parent="WIyWlLk6GJQsqaUBKTNV-1" target="n_4jIyUV8x4lz0zzY2AS-26">
          <mxGeometry width="50" height="50" relative="1" as="geometry">
            <mxPoint x="250" y="370" as="sourcePoint" />
            <mxPoint x="340" y="320" as="targetPoint" />
          </mxGeometry>
        </mxCell>
        <mxCell id="n_4jIyUV8x4lz0zzY2AS-39" value="" style="endArrow=classic;html=1;rounded=0;entryX=0;entryY=0.5;entryDx=0;entryDy=0;exitX=1;exitY=0;exitDx=0;exitDy=0;" edge="1" parent="WIyWlLk6GJQsqaUBKTNV-1" source="n_4jIyUV8x4lz0zzY2AS-19" target="n_4jIyUV8x4lz0zzY2AS-27">
          <mxGeometry width="50" height="50" relative="1" as="geometry">
            <mxPoint x="220" y="428" as="sourcePoint" />
            <mxPoint x="340" y="370" as="targetPoint" />
          </mxGeometry>
        </mxCell>
        <mxCell id="n_4jIyUV8x4lz0zzY2AS-40" value="" style="endArrow=classic;html=1;rounded=0;entryX=0;entryY=0.5;entryDx=0;entryDy=0;exitX=0.75;exitY=1;exitDx=0;exitDy=0;" edge="1" parent="WIyWlLk6GJQsqaUBKTNV-1" source="n_4jIyUV8x4lz0zzY2AS-19" target="n_4jIyUV8x4lz0zzY2AS-28">
          <mxGeometry width="50" height="50" relative="1" as="geometry">
            <mxPoint x="240" y="467" as="sourcePoint" />
            <mxPoint x="330" y="508" as="targetPoint" />
          </mxGeometry>
        </mxCell>
        <mxCell id="n_4jIyUV8x4lz0zzY2AS-41" value="" style="endArrow=classic;html=1;rounded=0;exitX=0.75;exitY=1;exitDx=0;exitDy=0;entryX=0;entryY=0.5;entryDx=0;entryDy=0;" edge="1" parent="WIyWlLk6GJQsqaUBKTNV-1" source="n_4jIyUV8x4lz0zzY2AS-19" target="n_4jIyUV8x4lz0zzY2AS-29">
          <mxGeometry width="50" height="50" relative="1" as="geometry">
            <mxPoint x="220" y="540" as="sourcePoint" />
            <mxPoint x="310" y="581" as="targetPoint" />
          </mxGeometry>
        </mxCell>
        <mxCell id="n_4jIyUV8x4lz0zzY2AS-50" value="" style="edgeStyle=orthogonalEdgeStyle;rounded=0;orthogonalLoop=1;jettySize=auto;html=1;" edge="1" parent="WIyWlLk6GJQsqaUBKTNV-1" source="n_4jIyUV8x4lz0zzY2AS-44" target="n_4jIyUV8x4lz0zzY2AS-49">
          <mxGeometry relative="1" as="geometry" />
        </mxCell>
        <mxCell id="n_4jIyUV8x4lz0zzY2AS-44" value="&lt;font style=&quot;font-size: 24px;&quot;&gt;Elastic Search&lt;/font&gt;" style="rounded=1;whiteSpace=wrap;html=1;fontSize=12;glass=0;strokeWidth=1;shadow=0;" vertex="1" parent="WIyWlLk6GJQsqaUBKTNV-1">
          <mxGeometry x="330" y="-60" width="170" height="130" as="geometry" />
        </mxCell>
        <mxCell id="n_4jIyUV8x4lz0zzY2AS-45" value="" style="shape=flexArrow;endArrow=classic;html=1;rounded=0;entryX=0;entryY=0.5;entryDx=0;entryDy=0;exitX=1.008;exitY=0.067;exitDx=0;exitDy=0;exitPerimeter=0;" edge="1" parent="WIyWlLk6GJQsqaUBKTNV-1" source="n_4jIyUV8x4lz0zzY2AS-8" target="n_4jIyUV8x4lz0zzY2AS-18">
          <mxGeometry width="50" height="50" relative="1" as="geometry">
            <mxPoint x="30" y="540" as="sourcePoint" />
            <mxPoint x="80" y="490" as="targetPoint" />
          </mxGeometry>
        </mxCell>
        <mxCell id="n_4jIyUV8x4lz0zzY2AS-48" value="" style="shape=flexArrow;endArrow=classic;html=1;rounded=0;entryX=0;entryY=0.5;entryDx=0;entryDy=0;exitX=0.5;exitY=0;exitDx=0;exitDy=0;" edge="1" parent="WIyWlLk6GJQsqaUBKTNV-1" source="n_4jIyUV8x4lz0zzY2AS-18" target="n_4jIyUV8x4lz0zzY2AS-44">
          <mxGeometry width="50" height="50" relative="1" as="geometry">
            <mxPoint x="30" y="540" as="sourcePoint" />
            <mxPoint x="80" y="490" as="targetPoint" />
            <Array as="points">
              <mxPoint x="165" y="5" />
            </Array>
          </mxGeometry>
        </mxCell>
        <mxCell id="n_4jIyUV8x4lz0zzY2AS-52" value="" style="edgeStyle=orthogonalEdgeStyle;rounded=0;orthogonalLoop=1;jettySize=auto;html=1;" edge="1" parent="WIyWlLk6GJQsqaUBKTNV-1" source="n_4jIyUV8x4lz0zzY2AS-49" target="n_4jIyUV8x4lz0zzY2AS-51">
          <mxGeometry relative="1" as="geometry" />
        </mxCell>
        <mxCell id="n_4jIyUV8x4lz0zzY2AS-49" value="&lt;blockquote style=&quot;margin: 0 0 0 40px; border: none; padding: 0px;&quot;&gt;&lt;font style=&quot;font-size: 28px;&quot;&gt;Filename&lt;/font&gt;&lt;/blockquote&gt;" style="whiteSpace=wrap;html=1;rounded=1;glass=0;strokeWidth=1;shadow=0;align=left;" vertex="1" parent="WIyWlLk6GJQsqaUBKTNV-1">
          <mxGeometry x="620" y="-32.5" width="175" height="75" as="geometry" />
        </mxCell>
        <mxCell id="n_4jIyUV8x4lz0zzY2AS-51" value="Respond" style="whiteSpace=wrap;html=1;align=center;rounded=1;glass=0;strokeWidth=1;shadow=0;fontSize=28;" vertex="1" parent="WIyWlLk6GJQsqaUBKTNV-1">
          <mxGeometry x="922.5" y="-40" width="157.5" height="87.5" as="geometry" />
        </mxCell>
        <mxCell id="n_4jIyUV8x4lz0zzY2AS-56" value="" style="edgeStyle=orthogonalEdgeStyle;rounded=0;orthogonalLoop=1;jettySize=auto;html=1;" edge="1" parent="WIyWlLk6GJQsqaUBKTNV-1" source="n_4jIyUV8x4lz0zzY2AS-53" target="n_4jIyUV8x4lz0zzY2AS-55">
          <mxGeometry relative="1" as="geometry" />
        </mxCell>
        <mxCell id="n_4jIyUV8x4lz0zzY2AS-53" value="Language model" style="whiteSpace=wrap;html=1;rounded=1;glass=0;strokeWidth=1;shadow=0;fontSize=28;" vertex="1" parent="WIyWlLk6GJQsqaUBKTNV-1">
          <mxGeometry x="887.5" y="265" width="192.5" height="115" as="geometry" />
        </mxCell>
        <mxCell id="n_4jIyUV8x4lz0zzY2AS-58" value="" style="edgeStyle=orthogonalEdgeStyle;rounded=0;orthogonalLoop=1;jettySize=auto;html=1;" edge="1" parent="WIyWlLk6GJQsqaUBKTNV-1" source="n_4jIyUV8x4lz0zzY2AS-55" target="n_4jIyUV8x4lz0zzY2AS-57">
          <mxGeometry relative="1" as="geometry" />
        </mxCell>
        <mxCell id="n_4jIyUV8x4lz0zzY2AS-55" value="Vector embedding" style="whiteSpace=wrap;html=1;fontSize=28;rounded=1;glass=0;strokeWidth=1;shadow=0;" vertex="1" parent="WIyWlLk6GJQsqaUBKTNV-1">
          <mxGeometry x="900.6300000000001" y="486.5" width="166.25" height="122.5" as="geometry" />
        </mxCell>
        <mxCell id="n_4jIyUV8x4lz0zzY2AS-57" value="Elastic search" style="rounded=1;whiteSpace=wrap;html=1;fontSize=28;glass=0;strokeWidth=1;shadow=0;" vertex="1" parent="WIyWlLk6GJQsqaUBKTNV-1">
          <mxGeometry x="907.19" y="720" width="153.13" height="118.75" as="geometry" />
        </mxCell>
        <mxCell id="n_4jIyUV8x4lz0zzY2AS-60" value="&lt;font style=&quot;&quot;&gt;&lt;font style=&quot;font-size: 36px;&quot;&gt;&lt;br&gt;&lt;b id=&quot;docs-internal-guid-35cc28cf-7fff-33c0-494b-6eb4920cd560&quot; style=&quot;font-weight: normal;&quot;&gt;&lt;h1 style=&quot;line-height:1.38;margin-top:20pt;margin-bottom:6pt;&quot; dir=&quot;ltr&quot;&gt;&lt;span style=&quot;font-family: Arial, sans-serif; color: rgb(0, 0, 0); background-color: transparent; font-weight: 400; font-style: normal; font-variant: normal; text-decoration: none; vertical-align: baseline;&quot;&gt;Block Diagram for Hackathon Preservation Partners of the Fox Valley&lt;/span&gt;&lt;/h1&gt;&lt;/b&gt;&lt;/font&gt;&lt;br&gt;&lt;/font&gt;" style="text;html=1;align=center;verticalAlign=middle;resizable=0;points=[];autosize=1;strokeColor=none;fillColor=none;" vertex="1" parent="WIyWlLk6GJQsqaUBKTNV-1">
          <mxGeometry x="-1115" y="-332" width="2230" height="230" as="geometry" />
        </mxCell>
      </root>
    </mxGraphModel>
  </diagram>
</mxfile>
